<svg xmlns="http://www.w3.org/2000/svg" viewBox="0 0 40 40"><defs><style>.cls-1{fill:#263242;}.cls-2,.cls-7,.cls-8{fill:#e8eceb;}.cls-2,.cls-3,.cls-8{stroke:#557d87;stroke-width:0.25px;}.cls-2,.cls-3,.cls-4,.cls-5,.cls-8{stroke-miterlimit:10;}.cls-3,.cls-5{fill:#8b95a5;}.cls-4{fill:#e8ecea;stroke:#263242;}.cls-5{stroke:#e8eceb;}.cls-6{fill:#557d87;}.cls-8{font-size:12px;font-family:Geneva;}</style></defs><title>reviewr-icon-40</title><g id="background_rect" data-name="background rect"><rect class="cls-1" width="40" height="40"/><rect class="cls-2" x="3.76" y="8.93" width="3" height="3" rx="1"/></g><g id="Layer_2" data-name="Layer 2"><rect class="cls-3" x="2.17" y="10.43" width="25" height="15"/><circle class="cls-4" cx="10.26" cy="17.93" r="5"/><circle class="cls-5" cx="10.26" cy="17.93" r="2.5"/></g><g id="rating-stars"><polygon class="cls-6" points="9.15 21.8 9.93 23.39 11.69 23.64 10.42 24.88 10.72 26.62 9.15 25.8 7.58 26.62 7.88 24.88 6.61 23.64 8.36 23.39 9.15 21.8"/><polygon class="cls-7" points="32.19 21.8 32.97 23.39 34.73 23.64 33.46 24.88 33.76 26.62 32.19 25.8 30.62 26.62 30.92 24.88 29.65 23.64 31.4 23.39 32.19 21.8"/><polygon class="cls-6" points="26.43 21.8 27.21 23.39 28.96 23.64 27.7 24.88 28 26.62 26.43 25.8 24.86 26.62 25.16 24.88 23.89 23.64 25.64 23.39 26.43 21.8"/><polygon class="cls-6" points="20.67 21.8 21.45 23.39 23.2 23.64 21.94 24.88 22.24 26.62 20.67 25.8 19.1 26.62 19.4 24.88 18.13 23.64 19.88 23.39 20.67 21.8"/><polygon class="cls-6" points="14.91 21.8 15.69 23.39 17.45 23.64 16.18 24.88 16.48 26.62 14.91 25.8 13.34 26.62 13.64 24.88 12.37 23.64 14.12 23.39 14.91 21.8"/></g><g id="Layer_4" data-name="Layer 4"><text class="cls-8" transform="translate(17.71 20.43)">Rw</text></g></svg>