<svg xmlns="http://www.w3.org/2000/svg" viewBox="0 0 72 72"><defs><style>.cls-1{fill:#263242;}.cls-2,.cls-7,.cls-8{fill:#e8eceb;}.cls-2,.cls-3,.cls-8{stroke:#557d87;stroke-width:0.25px;}.cls-2,.cls-3,.cls-4,.cls-5,.cls-8{stroke-miterlimit:10;}.cls-3,.cls-5{fill:#8b95a5;}.cls-4{fill:#e8ecea;stroke:#263242;}.cls-5{stroke:#e8eceb;}.cls-6{fill:#557d87;}.cls-8{font-size:18px;font-family:Geneva;}</style></defs><title>reviewr-icon-72</title><g id="icon-72"><rect class="cls-1" width="72" height="72"/><rect class="cls-2" x="11.63" y="19.4" width="4.5" height="4.5" rx="1"/><rect class="cls-3" x="9.26" y="21.65" width="37.5" height="22.5"/><circle class="cls-4" cx="21.38" cy="32.9" r="7.5"/><circle class="cls-5" cx="21.38" cy="32.9" r="3.75"/><polygon class="cls-6" points="19.72 38.69 20.9 41.08 23.53 41.46 21.63 43.31 22.07 45.93 19.72 44.7 17.37 45.93 17.82 43.31 15.91 41.46 18.55 41.08 19.72 38.69"/><polygon class="cls-7" points="54.28 38.69 55.46 41.08 58.09 41.46 56.19 43.31 56.63 45.93 54.28 44.7 51.93 45.93 52.38 43.31 50.47 41.46 53.1 41.08 54.28 38.69"/><polygon class="cls-6" points="45.64 38.69 46.82 41.08 49.45 41.46 47.55 43.31 47.99 45.93 45.64 44.7 43.29 45.93 43.74 43.31 41.83 41.46 44.47 41.08 45.64 38.69"/><polygon class="cls-6" points="37 38.69 38.18 41.08 40.81 41.46 38.91 43.31 39.35 45.93 37 44.7 34.65 45.93 35.1 43.31 33.19 41.46 35.83 41.08 37 38.69"/><polygon class="cls-6" points="28.36 38.69 29.54 41.08 32.17 41.46 30.27 43.31 30.71 45.93 28.36 44.7 26.01 45.93 26.46 43.31 24.55 41.46 27.18 41.08 28.36 38.69"/><text class="cls-8" transform="translate(32.57 36.65)">Rw</text></g></svg>