<svg xmlns="http://www.w3.org/2000/svg" viewBox="0 0 80 80"><defs><style>.cls-1{fill:#263242;}.cls-2,.cls-3,.cls-4{fill:#8b95a5;}.cls-2{stroke:#557d87;}.cls-2,.cls-3,.cls-4,.cls-7{stroke-miterlimit:10;}.cls-2,.cls-7{stroke-width:0.25px;}.cls-3{stroke:#263242;}.cls-4,.cls-7{stroke:#e8eceb;}.cls-5,.cls-7{fill:#557d87;}.cls-6{fill:#e8eceb;}.cls-7{font-size:24px;font-family:Geneva;}</style></defs><title>reviewr-icon-80</title><g id="icon-80"><rect class="cls-1" width="80" height="80"/><rect class="cls-2" x="4.34" y="20.87" width="50" height="30"/><circle class="cls-3" cx="20.51" cy="35.87" r="10"/><circle class="cls-4" cx="20.51" cy="35.87" r="5"/><polygon class="cls-5" points="18.3 43.59 19.86 46.77 23.37 47.28 20.83 49.75 21.43 53.25 18.3 51.6 15.16 53.25 15.76 49.75 13.22 47.28 16.73 46.77 18.3 43.59"/><polygon class="cls-6" points="64.38 43.59 65.94 46.77 69.45 47.28 66.91 49.75 67.51 53.25 64.38 51.6 61.24 53.25 61.84 49.75 59.3 47.28 62.81 46.77 64.38 43.59"/><polygon class="cls-5" points="52.85 43.59 54.42 46.77 57.93 47.28 55.39 49.75 55.99 53.25 52.85 51.6 49.72 53.25 50.32 49.75 47.78 47.28 51.29 46.77 52.85 43.59"/><polygon class="cls-5" points="41.34 43.59 42.9 46.77 46.41 47.28 43.87 49.75 44.47 53.25 41.34 51.6 38.2 53.25 38.8 49.75 36.26 47.28 39.77 46.77 41.34 43.59"/><polygon class="cls-5" points="29.82 43.59 31.38 46.77 34.89 47.28 32.35 49.75 32.95 53.25 29.82 51.6 26.68 53.25 27.28 49.75 24.74 47.28 28.25 46.77 29.82 43.59"/><text class="cls-7" transform="translate(35.42 40.87)">Rw</text></g></svg>