<svg xmlns="http://www.w3.org/2000/svg" viewBox="0 0 60 60"><defs><style>.cls-1{fill:#263242;}.cls-2,.cls-7,.cls-8{fill:#e8eceb;}.cls-2,.cls-3,.cls-8{stroke:#557d87;stroke-width:0.25px;}.cls-2,.cls-3,.cls-4,.cls-5,.cls-8{stroke-miterlimit:10;}.cls-3,.cls-5{fill:#8b95a5;}.cls-4{fill:#e8ecea;stroke:#263242;}.cls-5{stroke:#e8eceb;}.cls-6{fill:#557d87;}.cls-8{font-size:18px;font-family:Geneva;}</style></defs><title>reviewr-icon-60</title><g id="icon-60"><rect class="cls-1" width="60" height="60"/><rect class="cls-2" x="5.63" y="13.4" width="4.5" height="4.5" rx="1"/><rect class="cls-3" x="3.26" y="15.65" width="37.5" height="22.5"/><circle class="cls-4" cx="15.38" cy="26.9" r="7.5"/><circle class="cls-5" cx="15.38" cy="26.9" r="3.75"/><polygon class="cls-6" points="13.72 32.69 14.9 35.08 17.53 35.46 15.63 37.31 16.07 39.93 13.72 38.7 11.37 39.93 11.82 37.31 9.91 35.46 12.54 35.08 13.72 32.69"/><polygon class="cls-7" points="48.28 32.69 49.46 35.08 52.09 35.46 50.19 37.31 50.63 39.93 48.28 38.7 45.93 39.93 46.38 37.31 44.47 35.46 47.1 35.08 48.28 32.69"/><polygon class="cls-6" points="39.64 32.69 40.82 35.08 43.45 35.46 41.55 37.31 41.99 39.93 39.64 38.7 37.29 39.93 37.74 37.31 35.83 35.46 38.47 35.08 39.64 32.69"/><polygon class="cls-6" points="31 32.69 32.18 35.08 34.81 35.46 32.91 37.31 33.35 39.93 31 38.7 28.65 39.93 29.1 37.31 27.19 35.46 29.82 35.08 31 32.69"/><polygon class="cls-6" points="22.36 32.69 23.54 35.08 26.17 35.46 24.27 37.31 24.71 39.93 22.36 38.7 20.01 39.93 20.46 37.31 18.55 35.46 21.18 35.08 22.36 32.69"/><text class="cls-8" transform="translate(26.57 30.65)">Rw</text></g></svg>