<svg xmlns="http://www.w3.org/2000/svg" viewBox="0 0 768 1004"><defs><style>.cls-1{fill:#263242;}.cls-2,.cls-7,.cls-8{fill:#e8ebeb;}.cls-2,.cls-3,.cls-8{stroke:#557e87;stroke-width:0.25px;}.cls-2,.cls-3,.cls-4,.cls-5,.cls-8{stroke-miterlimit:10;}.cls-3,.cls-5{fill:#8b94a4;}.cls-4{fill:#e8ebea;stroke:#263242;}.cls-5{stroke:#e8ebeb;}.cls-6{fill:#557e87;}.cls-8{font-size:216px;font-family:Geneva;}</style></defs><title>reviewr_splash-default-portrait</title><g id="Layer_2" data-name="Layer 2"><rect class="cls-1" width="768" height="1004"/></g><g id="Layer_1" data-name="Layer 1"><rect class="cls-2" x="115.72" y="341.03" width="60.75" height="60.75" rx="1"/><rect class="cls-3" x="90.56" y="371.41" width="450" height="270"/><circle class="cls-4" cx="236.09" cy="506.41" r="90"/><circle class="cls-5" cx="236.09" cy="506.41" r="45"/><polygon class="cls-6" points="216.15 575.9 230.26 604.5 261.83 609.09 238.99 631.36 244.38 662.79 216.15 647.95 187.91 662.79 193.31 631.36 170.47 609.09 202.03 604.5 216.15 575.9"/><polygon class="cls-7" points="630.87 575.9 644.98 604.5 676.55 609.09 653.71 631.36 659.1 662.79 630.87 647.95 602.63 662.79 608.03 631.36 585.18 609.09 616.75 604.5 630.87 575.9"/><polygon class="cls-6" points="527.19 575.9 541.3 604.5 572.87 609.09 550.03 631.36 555.42 662.79 527.19 647.95 498.95 662.79 504.35 631.36 481.5 609.09 513.07 604.5 527.19 575.9"/><polygon class="cls-6" points="423.51 575.9 437.62 604.5 469.19 609.09 446.35 631.36 451.74 662.79 423.51 647.95 395.27 662.79 400.67 631.36 377.82 609.09 409.39 604.5 423.51 575.9"/><polygon class="cls-6" points="319.83 575.9 333.94 604.5 365.51 609.09 342.67 631.36 348.06 662.79 319.83 647.95 291.59 662.79 296.99 631.36 274.14 609.09 305.71 604.5 319.83 575.9"/><text class="cls-8" transform="translate(370.32 551.41)">Rw</text></g></svg>