<svg xmlns="http://www.w3.org/2000/svg" viewBox="0 0 750 1334"><defs><style>.cls-1{fill:#263242;}.cls-2,.cls-7,.cls-8{fill:#e8ebeb;}.cls-2,.cls-3,.cls-8{stroke:#557e87;stroke-width:0.25px;}.cls-2,.cls-3,.cls-4,.cls-5,.cls-8{stroke-miterlimit:10;}.cls-3,.cls-5{fill:#8b94a4;}.cls-4{fill:#e8ebea;stroke:#263242;}.cls-5{stroke:#e8ebeb;}.cls-6{fill:#557e87;}.cls-8{font-size:216px;font-family:Geneva;}</style></defs><title>reviewr_splash-default-667h</title><g id="Layer_2" data-name="Layer 2"><rect class="cls-1" width="750" height="1334"/></g><g id="Layer_1" data-name="Layer 1"><rect class="cls-2" x="117.68" y="472.8" width="60.75" height="60.75" rx="1"/><rect class="cls-3" x="92.52" y="503.18" width="450" height="270"/><circle class="cls-4" cx="238.06" cy="638.18" r="90"/><circle class="cls-5" cx="238.06" cy="638.18" r="45"/><polygon class="cls-6" points="218.11 707.67 232.23 736.28 263.79 740.87 240.95 763.13 246.34 794.57 218.11 779.73 189.88 794.57 195.27 763.13 172.43 740.87 204 736.28 218.11 707.67"/><polygon class="cls-7" points="632.83 707.67 646.95 736.28 678.51 740.87 655.67 763.13 661.07 794.57 632.83 779.73 604.6 794.57 609.99 763.13 587.15 740.87 618.72 736.28 632.83 707.67"/><polygon class="cls-6" points="529.15 707.67 543.27 736.28 574.83 740.87 551.99 763.13 557.38 794.57 529.15 779.73 500.92 794.57 506.31 763.13 483.47 740.87 515.03 736.28 529.15 707.67"/><polygon class="cls-6" points="425.47 707.67 439.59 736.28 471.15 740.87 448.31 763.13 453.7 794.57 425.47 779.73 397.24 794.57 402.63 763.13 379.79 740.87 411.36 736.28 425.47 707.67"/><polygon class="cls-6" points="321.79 707.67 335.91 736.28 367.47 740.87 344.63 763.13 350.02 794.57 321.79 779.73 293.56 794.57 298.95 763.13 276.11 740.87 307.68 736.28 321.79 707.67"/><text class="cls-8" transform="translate(372.28 683.19)">Rw</text></g></svg>