<svg xmlns="http://www.w3.org/2000/svg" viewBox="0 0 320 480"><defs><style>.cls-1{fill:#263242;}.cls-2,.cls-7,.cls-8{fill:#e8ebeb;}.cls-2,.cls-3,.cls-8{stroke:#557e87;stroke-width:0.25px;}.cls-2,.cls-3,.cls-4,.cls-5,.cls-8{stroke-miterlimit:10;}.cls-3,.cls-5{fill:#8b94a4;}.cls-4{fill:#e8ebea;stroke:#263242;}.cls-5{stroke:#e8ebeb;}.cls-6{fill:#557e87;}.cls-8{font-size:72px;font-family:Geneva;}</style></defs><title>reviewr_splash-default</title><g id="Layer_2" data-name="Layer 2"><rect class="cls-1" width="320" height="480"/></g><g id="Layer_1" data-name="Layer 1"><rect class="cls-2" x="71.02" y="152.99" width="20.25" height="20.25" rx="1"/><rect class="cls-3" x="62.64" y="163.12" width="150" height="90"/><circle class="cls-4" cx="111.15" cy="208.12" r="30"/><circle class="cls-5" cx="111.15" cy="208.12" r="15"/><polygon class="cls-6" points="104.5 231.28 109.2 240.82 119.73 242.35 112.11 249.77 113.91 260.25 104.5 255.3 95.09 260.25 96.89 249.77 89.27 242.35 99.79 240.82 104.5 231.28"/><polygon class="cls-7" points="242.74 231.28 247.44 240.82 257.97 242.35 250.35 249.77 252.15 260.25 242.74 255.3 233.33 260.25 235.13 249.77 227.51 242.35 238.03 240.82 242.74 231.28"/><polygon class="cls-6" points="208.18 231.28 212.88 240.82 223.41 242.35 215.79 249.77 217.59 260.25 208.18 255.3 198.77 260.25 200.57 249.77 192.95 242.35 203.47 240.82 208.18 231.28"/><polygon class="cls-6" points="173.62 231.28 178.32 240.82 188.85 242.35 181.23 249.77 183.03 260.25 173.62 255.3 164.21 260.25 166.01 249.77 158.39 242.35 168.91 240.82 173.62 231.28"/><polygon class="cls-6" points="139.06 231.28 143.76 240.82 154.29 242.35 146.67 249.77 148.47 260.25 139.06 255.3 129.65 260.25 131.45 249.77 123.83 242.35 134.35 240.82 139.06 231.28"/><text class="cls-8" transform="translate(155.89 223.12)">Rw</text></g></svg>