<svg xmlns="http://www.w3.org/2000/svg" viewBox="0 0 1024 748"><defs><style>.cls-1{fill:#263242;}.cls-2,.cls-7,.cls-8{fill:#e8ebeb;}.cls-2,.cls-3,.cls-8{stroke:#557e87;stroke-width:0.25px;}.cls-2,.cls-3,.cls-4,.cls-5,.cls-8{stroke-miterlimit:10;}.cls-3,.cls-5{fill:#8b94a4;}.cls-4{fill:#e8ebea;stroke:#263242;}.cls-5{stroke:#e8ebeb;}.cls-6{fill:#557e87;}.cls-8{font-size:216px;font-family:Geneva;}</style></defs><title>reviewr_splash-default-landscape</title><g id="Layer_2" data-name="Layer 2"><rect class="cls-1" width="1024" height="748"/></g><g id="Layer_1" data-name="Layer 1"><rect class="cls-2" x="244.02" y="213.33" width="60.75" height="60.75" rx="1"/><rect class="cls-3" x="218.86" y="243.7" width="450" height="270"/><circle class="cls-4" cx="364.39" cy="378.7" r="90"/><circle class="cls-5" cx="364.39" cy="378.7" r="45"/><polygon class="cls-6" points="344.44 448.2 358.56 476.8 390.13 481.39 367.29 503.65 372.68 535.09 344.44 520.25 316.21 535.09 321.6 503.65 298.76 481.39 330.33 476.8 344.44 448.2"/><polygon class="cls-7" points="759.16 448.2 773.28 476.8 804.85 481.39 782.01 503.65 787.4 535.09 759.16 520.25 730.93 535.09 736.32 503.65 713.48 481.39 745.05 476.8 759.16 448.2"/><polygon class="cls-6" points="655.49 448.2 669.6 476.8 701.17 481.39 678.33 503.65 683.72 535.09 655.49 520.25 627.25 535.09 632.64 503.65 609.8 481.39 641.37 476.8 655.49 448.2"/><polygon class="cls-6" points="551.8 448.2 565.92 476.8 597.49 481.39 574.65 503.65 580.04 535.09 551.8 520.25 523.57 535.09 528.96 503.65 506.12 481.39 537.69 476.8 551.8 448.2"/><polygon class="cls-6" points="448.13 448.2 462.24 476.8 493.81 481.39 470.97 503.65 476.36 535.09 448.13 520.25 419.89 535.09 425.28 503.65 402.44 481.39 434.01 476.8 448.13 448.2"/><text class="cls-8" transform="translate(498.61 423.71)">Rw</text></g></svg>