<svg xmlns="http://www.w3.org/2000/svg" viewBox="0 0 2208 1242"><defs><style>.cls-1{fill:#263242;}.cls-2,.cls-7,.cls-8{fill:#e8ebeb;}.cls-2,.cls-3,.cls-8{stroke:#557e87;stroke-width:0.25px;}.cls-2,.cls-3,.cls-4,.cls-5,.cls-8{stroke-miterlimit:10;}.cls-3,.cls-5{fill:#8b94a4;}.cls-4{fill:#e8ebea;stroke:#263242;}.cls-5{stroke:#e8ebeb;}.cls-6{fill:#557e87;}.cls-8{font-size:432px;font-family:Geneva;}</style></defs><title>reviewr_splash-default-736h-landscape</title><g id="Layer_2" data-name="Layer 2"><rect class="cls-1" width="2208" height="1242"/></g><g id="Layer_1" data-name="Layer 1"><rect class="cls-2" x="568.33" y="298.96" width="121.5" height="121.5" rx="1"/><rect class="cls-3" x="518.01" y="359.71" width="900" height="540"/><circle class="cls-4" cx="809.08" cy="629.71" r="180"/><circle class="cls-5" cx="809.08" cy="629.71" r="90"/><polygon class="cls-6" points="769.19 768.7 797.42 825.9 860.55 835.08 814.87 879.61 825.65 942.48 769.19 912.8 712.72 942.48 723.5 879.61 677.82 835.08 740.95 825.9 769.19 768.7"/><polygon class="cls-7" points="1598.63 768.7 1626.86 825.9 1689.99 835.08 1644.31 879.61 1655.09 942.48 1598.63 912.8 1542.16 942.48 1552.94 879.61 1507.26 835.08 1570.39 825.9 1598.63 768.7"/><polygon class="cls-6" points="1391.27 768.7 1419.5 825.9 1482.63 835.08 1436.95 879.61 1447.73 942.48 1391.27 912.8 1334.8 942.48 1345.58 879.61 1299.9 835.08 1363.03 825.9 1391.27 768.7"/><polygon class="cls-6" points="1183.91 768.7 1212.14 825.9 1275.27 835.08 1229.59 879.61 1240.37 942.48 1183.91 912.8 1127.44 942.48 1138.22 879.61 1092.54 835.08 1155.67 825.9 1183.91 768.7"/><polygon class="cls-6" points="976.55 768.7 1004.78 825.9 1067.91 835.08 1022.23 879.61 1033.01 942.48 976.55 912.8 920.08 942.48 930.86 879.61 885.18 835.08 948.31 825.9 976.55 768.7"/><text class="cls-8" transform="translate(1077.52 719.72)">Rw</text></g></svg>