<svg xmlns="http://www.w3.org/2000/svg" viewBox="0 0 1334 750"><defs><style>.cls-1{fill:#263242;}.cls-2,.cls-7,.cls-8{fill:#e8ebeb;}.cls-2,.cls-3,.cls-8{stroke:#557e87;stroke-width:0.25px;}.cls-2,.cls-3,.cls-4,.cls-5,.cls-8{stroke-miterlimit:10;}.cls-3,.cls-5{fill:#8b94a4;}.cls-4{fill:#e8ebea;stroke:#263242;}.cls-5{stroke:#e8ebeb;}.cls-6{fill:#557e87;}.cls-8{font-size:216px;font-family:Geneva;}</style></defs><title>reviewr_splash-default-667h-landscape</title><g id="Layer_2" data-name="Layer 2"><rect class="cls-1" y="1" width="1334" height="748"/></g><g id="Layer_1" data-name="Layer 1"><rect class="cls-2" x="398.7" y="234.74" width="60.75" height="60.75" rx="1"/><rect class="cls-3" x="373.54" y="265.12" width="450" height="270"/><circle class="cls-4" cx="519.07" cy="400.12" r="90"/><circle class="cls-5" cx="519.07" cy="400.12" r="45"/><polygon class="cls-6" points="499.13 469.61 513.24 498.22 544.81 502.8 521.97 525.07 527.36 556.51 499.13 541.66 470.89 556.51 476.29 525.07 453.44 502.8 485.01 498.22 499.13 469.61"/><polygon class="cls-7" points="913.85 469.61 927.96 498.22 959.53 502.8 936.69 525.07 942.08 556.51 913.85 541.66 885.61 556.51 891 525.07 868.16 502.8 899.73 498.22 913.85 469.61"/><polygon class="cls-6" points="810.17 469.61 824.28 498.22 855.85 502.8 833.01 525.07 838.4 556.51 810.17 541.66 781.93 556.51 787.33 525.07 764.48 502.8 796.05 498.22 810.17 469.61"/><polygon class="cls-6" points="706.49 469.61 720.6 498.22 752.17 502.8 729.33 525.07 734.72 556.51 706.49 541.66 678.25 556.51 683.64 525.07 660.8 502.8 692.37 498.22 706.49 469.61"/><polygon class="cls-6" points="602.81 469.61 616.92 498.22 648.49 502.8 625.65 525.07 631.04 556.51 602.81 541.66 574.57 556.51 579.97 525.07 557.12 502.8 588.69 498.22 602.81 469.61"/><text class="cls-8" transform="translate(653.29 445.12)">Rw</text></g></svg>