<svg xmlns="http://www.w3.org/2000/svg" viewBox="0 0 1242 2208"><defs><style>.cls-1{fill:#263242;}.cls-2,.cls-7,.cls-8{fill:#e8ebeb;}.cls-2,.cls-3,.cls-8{stroke:#557e87;stroke-width:0.25px;}.cls-2,.cls-3,.cls-4,.cls-5,.cls-8{stroke-miterlimit:10;}.cls-3,.cls-5{fill:#8b94a4;}.cls-4{fill:#e8ebea;stroke:#263242;}.cls-5{stroke:#e8ebeb;}.cls-6{fill:#557e87;}.cls-8{font-size:432px;font-family:Geneva;}</style></defs><title>reviewr_splash-default-736h</title><g id="Layer_2" data-name="Layer 2"><rect class="cls-1" width="1242" height="2208"/></g><g id="Layer_1" data-name="Layer 1"><rect class="cls-2" x="84.85" y="781.92" width="121.5" height="121.5" rx="1"/><rect class="cls-3" x="34.53" y="842.67" width="900" height="540"/><circle class="cls-4" cx="325.6" cy="1112.67" r="180"/><circle class="cls-5" cx="325.6" cy="1112.67" r="90"/><polygon class="cls-6" points="285.7 1251.66 313.94 1308.87 377.07 1318.05 331.39 1362.57 342.17 1425.45 285.7 1395.76 229.24 1425.45 240.02 1362.57 194.34 1318.05 257.47 1308.87 285.7 1251.66"/><polygon class="cls-7" points="1115.14 1251.66 1143.38 1308.87 1206.51 1318.05 1160.83 1362.57 1171.61 1425.45 1115.14 1395.76 1058.68 1425.45 1069.46 1362.57 1023.78 1318.05 1086.91 1308.87 1115.14 1251.66"/><polygon class="cls-6" points="907.78 1251.66 936.02 1308.87 999.15 1318.05 953.47 1362.57 964.25 1425.45 907.78 1395.76 851.32 1425.45 862.1 1362.57 816.42 1318.05 879.55 1308.87 907.78 1251.66"/><polygon class="cls-6" points="700.42 1251.66 728.66 1308.87 791.79 1318.05 746.11 1362.57 756.89 1425.45 700.42 1395.76 643.96 1425.45 654.74 1362.57 609.06 1318.05 672.19 1308.87 700.42 1251.66"/><polygon class="cls-6" points="493.06 1251.66 521.3 1308.87 584.43 1318.05 538.75 1362.57 549.53 1425.45 493.06 1395.76 436.6 1425.45 447.38 1362.57 401.7 1318.05 464.83 1308.87 493.06 1251.66"/><text class="cls-8" transform="translate(594.04 1202.68)">Rw</text></g></svg>